<svg width="109" height="106" viewBox="0 0 109 106" fill="none" xmlns="http://www.w3.org/2000/svg">
<g id="github-logo">
<path id="Vector" fill-rule="evenodd" clip-rule="evenodd" d="M54.0971 0.18512C24.224 0.18512 0 24.404 0 54.2819C0 78.1832 15.5006 98.461 36.9949 105.614C39.6982 106.115 40.6911 104.44 40.6911 103.012C40.6911 101.723 40.6414 97.4603 40.6179 92.9399C25.568 96.2127 22.3923 86.5572 22.3923 86.5572C19.9313 80.3047 16.386 78.6417 16.386 78.6417C11.4773 75.284 16.756 75.3532 16.756 75.3532C22.1877 75.7348 25.0485 80.9289 25.0485 80.9289C29.8733 89.1986 37.7036 86.8074 40.7911 85.4252C41.2767 81.9292 42.6781 79.542 44.2256 78.1912C32.2099 76.8238 19.5782 72.1847 19.5782 51.4563C19.5782 45.5506 21.6917 40.7246 25.1526 36.936C24.5909 35.5729 22.7391 30.0712 25.6767 22.6193C25.6767 22.6193 30.2196 21.1662 40.5565 28.1652C44.872 26.9664 49.5001 26.3653 54.0973 26.3444C58.6944 26.3653 63.3257 26.9664 67.6489 28.1652C77.9745 21.1662 82.511 22.6193 82.511 22.6193C85.4554 30.0712 83.6034 35.5729 83.0418 36.936C86.5106 40.7246 88.6092 45.5504 88.6092 51.4563C88.6092 72.2345 75.9539 76.8088 63.9073 78.1483C65.8476 79.8272 67.5762 83.1193 67.5762 88.1661C67.5762 95.4043 67.5143 101.23 67.5143 103.012C67.5143 104.452 68.4878 106.139 71.2295 105.608C92.7128 98.4464 108.194 78.1755 108.194 54.2819C108.194 24.404 83.9732 0.18512 54.0971 0.18512Z" fill="#0C583D"/>
<path id="Vector_2" d="M20.4896 77.856C20.3706 78.1255 19.9472 78.2059 19.5622 78.0214C19.1695 77.8448 18.9499 77.4783 19.0766 77.2088C19.193 76.932 19.6163 76.8552 20.0083 77.0399C20.4013 77.2167 20.6253 77.5865 20.4896 77.856Z" fill="#0C583D"/>
<path id="Vector_3" d="M22.6809 80.3005C22.423 80.539 21.9179 80.4281 21.5757 80.0503C21.2215 79.673 21.156 79.1682 21.4178 78.9261C21.6838 78.6872 22.1729 78.7989 22.527 79.1763C22.8815 79.5578 22.9504 80.0582 22.6809 80.3005Z" fill="#0C583D"/>
<path id="Vector_4" d="M24.8139 83.4158C24.4822 83.6466 23.9399 83.4303 23.6047 82.9492C23.2731 82.468 23.2731 81.8909 23.6125 81.6596C23.9477 81.4288 24.4823 81.6367 24.8217 82.1138C25.1525 82.6032 25.1524 83.1805 24.8139 83.4158Z" fill="#0C583D"/>
<path id="Vector_5" d="M27.7358 86.4261C27.439 86.7531 26.8073 86.6646 26.3456 86.2185C25.8723 85.7828 25.741 85.1637 26.0375 84.8364C26.3386 84.5091 26.9738 84.6009 27.439 85.0437C27.9088 85.4792 28.0514 86.1021 27.7358 86.4261Z" fill="#0C583D"/>
<path id="Vector_6" d="M31.7669 88.1738C31.6358 88.5971 31.028 88.7896 30.4154 88.6095C29.803 88.4239 29.4034 87.9279 29.5266 87.5C29.6533 87.0733 30.2646 86.873 30.8814 87.0654C31.4931 87.2499 31.8937 87.7424 31.7669 88.1738Z" fill="#0C583D"/>
<path id="Vector_7" d="M36.1946 88.4976C36.2093 88.9436 35.6896 89.3138 35.0468 89.3217C34.4001 89.3365 33.876 88.9754 33.8692 88.5362C33.8692 88.0855 34.3771 87.7197 35.024 87.7085C35.6669 87.6962 36.1946 88.0548 36.1946 88.4976Z" fill="#0C583D"/>
<path id="Vector_8" d="M40.3143 87.7968C40.3911 88.2317 39.9438 88.6786 39.3051 88.7976C38.6771 88.9132 38.0964 88.6437 38.016 88.2123C37.9382 87.7663 38.3928 87.3192 39.0203 87.2037C39.6599 87.0926 40.2328 87.354 40.3143 87.7968Z" fill="#0C583D"/>
</g>
</svg>
