<svg width="191" height="258" viewBox="0 0 191 258" fill="none" xmlns="http://www.w3.org/2000/svg">
<g clip-path="url(#clip0_55_108)">
<path d="M61.5834 199.445C61.5834 199.445 51.738 205.168 68.5904 207.105C89.007 209.433 99.441 209.099 121.94 204.842C121.94 204.842 127.856 208.55 136.116 211.761C85.6799 233.368 21.9675 210.509 61.5834 199.445ZM55.4201 171.249C55.4201 171.249 44.3774 179.42 61.2425 181.163C83.0519 183.412 100.275 183.596 130.078 177.86C130.078 177.86 134.201 182.037 140.682 184.322C79.7009 202.146 11.779 185.727 55.4201 171.249Z" fill="#5382A1"/>
<path d="M107.377 123.419C119.805 137.721 104.112 150.591 104.112 150.591C104.112 150.591 135.668 134.308 121.176 113.917C107.641 94.9023 97.2605 85.4533 153.453 52.8782C153.453 52.8782 65.2499 74.8984 107.377 123.419Z" fill="#E76F00"/>
<path d="M174.084 220.301C174.084 220.301 181.37 226.301 166.06 230.944C136.947 239.76 44.8892 242.422 19.3156 231.295C10.1229 227.298 27.3624 221.75 32.785 220.586C38.4402 219.36 41.6725 219.589 41.6725 219.589C31.4489 212.389 -24.4084 233.724 13.3 239.833C116.135 256.503 200.758 232.327 174.084 220.301ZM66.3174 142.034C66.3174 142.034 19.4916 153.152 49.7358 157.188C62.5054 158.897 87.9619 158.511 111.674 156.525C131.053 154.892 150.512 151.417 150.512 151.417C150.512 151.417 143.679 154.342 138.735 157.716C91.1838 170.217 -0.677349 164.402 25.7683 151.615C48.1334 140.808 66.3174 142.034 66.3174 142.034ZM150.319 188.968C198.658 163.86 176.308 139.732 160.708 142.983C156.884 143.778 155.18 144.467 155.18 144.467C155.18 144.467 156.599 142.244 159.31 141.283C190.171 130.437 213.906 173.269 149.348 190.233C149.348 190.234 150.096 189.566 150.319 188.968Z" fill="#5382A1"/>
<path d="M121.176 0.276625C121.176 0.276625 147.947 27.046 95.785 68.2074C53.9573 101.227 86.2469 120.053 95.7678 141.564C71.352 119.544 53.4336 100.16 65.455 82.1193C83.0981 55.6355 131.977 42.7967 121.176 0.276625Z" fill="#E76F00"/>
<path d="M71.0678 257.004C117.467 259.974 188.717 255.357 190.405 233.412C190.405 233.412 187.161 241.732 152.059 248.338C112.456 255.788 63.6125 254.918 34.6424 250.144C34.6432 250.144 40.5722 255.05 71.0678 257.004Z" fill="#5382A1"/>
</g>
<defs>
<clipPath id="clip0_55_108">
<rect width="191" height="258" fill="white"/>
</clipPath>
</defs>
</svg>
