<svg width="309" height="309" viewBox="0 0 309 309" fill="none" xmlns="http://www.w3.org/2000/svg">
<g clip-path="url(#clip0_55_99)">
<path d="M0 0H309V309H0V0Z" fill="#F0DB4F"/>
<path d="M283.71 235.304C281.448 221.205 272.255 209.368 245.026 198.324C235.568 193.977 225.024 190.864 221.881 183.696C220.765 179.525 220.618 177.176 221.323 174.65C223.349 166.455 233.131 163.899 240.885 166.249C245.878 167.923 250.607 171.771 253.456 177.91C266.792 169.275 266.762 169.333 276.073 163.4C272.666 158.113 270.845 155.675 268.613 153.413C260.594 144.455 249.667 139.843 232.191 140.196C229.165 140.578 226.111 140.989 223.085 141.371C214.362 143.574 206.049 148.156 201.173 154.295C186.546 170.89 190.716 199.939 208.516 211.894C226.052 225.053 251.812 228.049 255.101 240.356C258.303 255.425 244.028 260.3 229.841 258.567C219.384 256.394 213.569 251.077 207.283 241.414C195.71 248.111 195.71 248.111 183.814 254.955C186.634 261.123 189.6 263.913 194.33 269.259C216.712 291.964 272.725 290.848 282.771 256.482C283.181 255.307 285.884 247.435 283.71 235.304ZM167.982 142.017H139.079C139.079 166.983 138.962 191.774 138.962 216.741C138.962 232.631 139.785 247.2 137.2 251.665C132.97 260.447 122.014 259.36 117.021 257.656C111.939 255.16 109.355 251.606 106.359 246.583C105.536 245.144 104.919 244.028 104.713 243.94C96.8712 248.727 89.0578 253.544 81.2153 258.332C85.1222 266.351 90.8789 273.312 98.2515 277.835C109.266 284.444 124.07 286.471 139.55 282.917C149.624 279.98 158.318 273.9 162.871 264.647C169.451 252.516 168.041 237.83 167.982 221.587C168.129 195.093 167.982 168.599 167.982 142.017Z" fill="#323330"/>
</g>
<defs>
<clipPath id="clip0_55_99">
<rect width="309" height="309" fill="white"/>
</clipPath>
</defs>
</svg>
