<svg width="257" height="284" viewBox="0 0 257 284" fill="none" xmlns="http://www.w3.org/2000/svg">
<path d="M240.495 139.414C240.495 124.858 228.687 113.058 214.122 113.058C213.184 113.058 212.26 113.108 211.349 113.205L247.573 6.43701H93.6339L129.808 113.111C129.274 113.078 128.739 113.06 128.204 113.059C113.639 113.059 101.831 124.857 101.831 139.415C101.831 151.18 109.547 161.142 120.196 164.531C114.572 174.266 107.494 183.036 99.4587 190.612C88.5319 200.913 76.027 208.724 62.502 213.537C46.399 205.27 38.7952 186.885 45.6561 170.766C46.4311 168.945 47.2222 167.1 47.9782 165.263C59.6438 162.542 68.3379 152.091 68.3379 139.603C68.3379 125.047 56.5296 113.248 41.9636 113.248C27.3976 113.248 15.5903 125.047 15.5903 139.603C15.5903 148.53 20.0337 156.414 26.8273 161.182C20.2998 176.034 10.7042 191.579 7.7145 209.594C4.13147 231.185 7.70245 254.103 26.3886 267.046C69.907 297.188 117.146 248.36 166.953 236.085C185.004 231.638 204.818 232.354 220.722 223.15C232.664 216.238 240.538 204.782 242.772 191.921C244.981 179.215 241.762 166.565 234.361 156.308C238.332 151.573 240.504 145.591 240.495 139.414Z" fill="#99425B"/>
<path d="M236.426 190.819C234.486 201.985 227.585 211.738 217.494 217.58C208.086 223.025 196.813 224.65 184.876 226.37C178.482 227.291 171.87 228.245 165.411 229.836C148.332 234.045 131.789 242.257 115.793 250.197C83.7773 266.089 56.1291 279.812 30.059 261.755C10.9622 248.529 11.8436 224.057 14.0683 210.648C16.1304 198.223 21.7053 186.781 27.0954 175.716C28.0137 173.835 28.9246 171.951 29.8281 170.064C32.5452 171.149 35.3962 171.864 38.3042 172.188C32.8168 190.286 41.4466 209.964 59.5585 219.263L62.0382 220.536L64.6625 219.602C78.9815 214.505 92.1762 206.329 103.879 195.294C111.444 188.161 117.948 180.271 123.294 171.839C124.919 172.084 126.561 172.207 128.204 172.208C144.828 172.208 158.594 159.788 160.725 143.748C167.529 143.499 174.757 143.497 181.6 143.746C183.729 159.788 197.497 172.209 214.121 172.209C221.072 172.209 227.519 170.031 232.831 166.333C236.518 173.877 237.895 182.365 236.426 190.819ZM41.9646 119.685C52.9556 119.685 61.8966 128.621 61.8966 139.604C61.8966 143.549 60.7381 147.228 58.7493 150.326C55.4363 155.49 49.8043 159.03 43.3339 159.471C42.8812 159.501 42.4244 159.523 41.9646 159.523C39.515 159.523 37.1688 159.077 34.9993 158.266C30.63 156.624 26.9711 153.51 24.6538 149.46C22.9331 146.46 22.0289 143.062 22.0315 139.604C22.0315 128.621 30.9735 119.685 41.9646 119.685ZM108.273 139.415C108.273 129.435 115.655 121.149 125.247 119.717C126.212 119.571 127.2 119.496 128.205 119.496C134.595 119.496 140.285 122.521 143.933 127.208C144.847 128.377 145.627 129.644 146.26 130.985C147.499 133.623 148.14 136.501 148.137 139.415C148.137 141.007 147.945 142.555 147.59 144.04C145.648 152.166 138.713 158.378 130.216 159.233C129.556 159.299 128.885 159.334 128.205 159.334C124.371 159.337 120.619 158.228 117.403 156.142C111.915 152.59 108.273 146.421 108.273 139.415ZM191.464 115.728C187.126 119.865 184.005 125.11 182.438 130.894C174.925 130.617 167.404 130.617 159.891 130.894C158.205 124.642 154.709 119.126 150.006 114.936L170.631 73.2584L191.464 115.728ZM102.618 12.8759H238.588L206.473 107.529C205.091 107.86 203.733 108.28 202.406 108.788L170.682 44.1146L138.867 108.402C137.48 107.926 136.063 107.544 134.624 107.259L102.618 12.8759ZM234.053 139.416C234.053 141.412 233.755 143.341 233.205 145.161C231.903 149.448 229.197 153.174 225.522 155.741C222.183 158.083 218.201 159.338 214.121 159.335C204.918 159.335 197.154 153.067 194.871 144.58C194.418 142.896 194.188 141.16 194.189 139.416C194.189 136.693 194.739 134.096 195.733 131.731C196.246 130.52 196.877 129.364 197.618 128.278C201.205 122.986 207.258 119.497 214.121 119.497C214.75 119.497 215.371 119.529 215.986 119.587C226.106 120.529 234.053 129.06 234.053 139.416ZM246.936 139.416C246.936 123.406 235.393 110.047 220.189 107.194L256.558 0H84.6497L121.074 107.411C106.399 110.674 95.3908 123.78 95.3908 139.415C95.3908 151.155 101.599 161.467 110.904 167.261C106.428 173.925 101.121 180.196 95.0394 185.93C85.3936 195.023 74.6486 201.919 63.0642 206.457C51.3955 199.132 46.4632 185.318 51.5853 173.285L51.9868 172.342L52.7398 170.572C65.556 166.105 74.7791 153.915 74.7791 139.604C74.7791 121.522 60.0584 106.811 41.9646 106.811C23.8707 106.811 9.14808 121.522 9.14808 139.604C9.14808 148.731 12.9028 156.996 18.9444 162.947C17.8176 165.333 16.6738 167.711 15.513 170.081C9.98837 181.418 3.72786 194.269 1.35958 208.541C-3.34283 236.883 4.24288 259.54 22.7202 272.336C33.9321 280.102 45.3187 283.156 56.7766 283.156C78.3511 283.156 100.177 272.323 121.523 261.727C136.896 254.097 152.794 246.206 168.496 242.336C174.339 240.896 180.35 240.029 186.715 239.112C199.338 237.292 212.389 235.411 223.95 228.72C237.352 220.963 246.525 207.951 249.119 193.022C251.345 180.206 248.666 167.369 242.13 156.481C245.28 151.346 246.943 145.438 246.936 139.415V139.416Z" fill="white"/>
</svg>
