<svg width="93" height="94" viewBox="0 0 93 94" fill="none" xmlns="http://www.w3.org/2000/svg">
<g id="linkedin-logo">
<path id="Vector" d="M49.91 42.1297V41.9851C49.8799 42.0339 49.848 42.0828 49.8161 42.1297H49.91Z" fill="#0C583D"/>
<path id="Vector_2" d="M85.9552 0H6.85636C3.07043 0 0 2.99719 0 6.6911V86.7158C0 90.4078 3.07043 93.405 6.85636 93.405H85.9552C89.7468 93.405 92.8172 90.4059 92.8172 86.7158V6.6911C92.8172 2.99531 89.7449 0 85.9552 0ZM28.1334 78.1918H14.1146V36.0151H28.1334V78.1918ZM21.125 30.2536H21.0311C16.3287 30.2536 13.2864 27.0142 13.2864 22.9672C13.2864 18.8301 16.4226 15.6808 21.217 15.6808C26.0132 15.6808 28.9635 18.8301 29.0574 22.9672C29.0574 27.0142 26.0114 30.2536 21.125 30.2536ZM78.6857 78.1918H64.6669V55.6227C64.6669 49.9551 62.6387 46.0865 57.5664 46.0865C53.6941 46.0865 51.388 48.695 50.372 51.2152C50.002 52.1147 49.9119 53.3729 49.9119 54.6349V78.1899H35.8931C35.8931 78.1899 36.0771 39.9663 35.8931 36.0133H49.9119V41.9832C51.7748 39.11 55.1063 35.018 62.5486 35.018C71.7711 35.018 78.6876 41.048 78.6876 54.0039L78.6857 78.1918Z" fill="#0C583D"/>
</g>
</svg>
