<svg width="255" height="255" viewBox="0 0 255 255" fill="none" xmlns="http://www.w3.org/2000/svg">
<path d="M117.354 33.1528L122.88 43.5324C124.122 45.4479 125.468 47.1433 127.054 48.7222C131.702 53.3123 136.034 58.2113 140.022 63.3856C149.385 75.6807 155.701 89.3346 160.212 104.102C162.916 113.122 164.385 122.376 164.495 131.733C164.948 159.707 155.358 183.728 136.023 203.691C132.878 206.857 129.48 209.761 125.863 212.375C123.948 212.375 123.042 210.906 122.252 209.554C120.815 207.046 119.858 204.292 119.431 201.433C118.751 198.048 118.305 194.664 118.525 191.17V189.591C118.37 189.254 116.681 33.9488 117.354 33.1528Z" fill="#599636"/>
<path d="M117.354 32.8098C117.127 32.3568 116.901 32.6998 116.674 32.9198C116.784 35.1847 115.995 37.2036 114.759 39.132C113.4 41.0474 111.601 42.5164 109.795 44.0953C99.7653 52.7795 91.8706 63.2691 85.5483 75.0011C77.1359 90.7905 72.8003 107.712 71.5708 125.527C71.0078 131.953 73.6027 154.628 75.6282 161.17C81.1545 178.538 91.0811 193.092 103.939 205.723C107.097 208.764 110.475 211.586 113.969 214.297C114.985 214.297 115.095 213.391 115.328 212.718C115.774 211.278 116.113 209.808 116.344 208.318L118.609 191.403L117.354 32.8098Z" fill="#6CAC48"/>
<path d="M122.88 219.248C123.106 216.659 124.349 214.511 125.701 212.369C124.342 211.806 123.333 210.686 122.543 209.437C121.863 208.255 121.299 207.009 120.861 205.717C119.282 200.98 118.945 196.01 118.493 191.17V188.238C117.93 188.691 117.813 192.522 117.813 193.092C117.484 198.207 116.805 203.295 115.781 208.318C115.445 210.35 115.218 212.375 113.969 214.181C113.969 214.407 113.969 214.634 114.079 214.97C116.111 220.95 116.668 227.039 117.011 233.245V235.509C117.011 238.214 116.901 237.645 119.146 238.551C120.052 238.887 121.062 239.004 121.967 239.677C122.647 239.677 122.757 239.114 122.757 238.661L122.42 234.94V224.56C122.31 222.748 122.647 220.95 122.873 219.254L122.88 219.248Z" fill="#C2BFBF"/>
</svg>
