<svg width="161" height="161" viewBox="0 0 161 161" fill="none" xmlns="http://www.w3.org/2000/svg">
<g clip-path="url(#clip0_55_75)">
<path d="M75.2334 0.125805C74.8875 0.157247 73.787 0.267295 72.7966 0.345901C49.9538 2.40537 28.5574 14.7307 15.0058 33.6747C7.45963 44.2078 2.63325 56.1559 0.809597 68.8114C0.165031 73.229 0.0864258 74.5339 0.0864258 80.5236C0.0864258 86.5134 0.165031 87.8182 0.809597 92.2359C5.18007 122.436 26.6708 147.81 55.8178 157.211C61.0372 158.893 66.5396 160.041 72.7966 160.733C75.2334 161 85.7665 161 88.2033 160.733C99.0037 159.538 108.153 156.865 117.177 152.259C118.561 151.552 118.828 151.363 118.639 151.206C118.514 151.111 112.618 143.204 105.544 133.645L92.6838 116.273L76.5697 92.4245C67.703 79.3131 60.4084 68.5913 60.3455 68.5913C60.2826 68.5756 60.2197 79.1716 60.1883 92.1101C60.1411 114.764 60.1254 115.676 59.8424 116.211C59.4337 116.981 59.1192 117.295 58.4589 117.641C57.9559 117.893 57.5157 117.94 55.1418 117.94H52.422L51.6989 117.484C51.2272 117.185 50.8814 116.792 50.6456 116.336L50.3154 115.629L50.3469 84.108L50.394 52.5715L50.8814 51.9583C51.1329 51.6282 51.6674 51.2037 52.0447 50.9994C52.6893 50.6849 52.9408 50.6535 55.6606 50.6535C58.8677 50.6535 59.4022 50.7793 60.2354 51.6911C60.4713 51.9426 69.1965 65.0855 79.6353 80.9167C90.0741 96.7478 104.349 118.364 111.361 128.976L124.095 148.266L124.739 147.841C130.446 144.131 136.483 138.849 141.262 133.347C151.434 121.666 157.989 107.422 160.19 92.2359C160.835 87.8182 160.913 86.5134 160.913 80.5236C160.913 74.5339 160.835 73.229 160.19 68.8114C155.82 38.6111 134.329 13.2372 105.182 3.83599C100.041 2.16955 94.5704 1.02191 88.4391 0.33018C86.9299 0.172968 76.5382 3.60615e-05 75.2334 0.125805ZM108.153 48.767C108.908 49.1443 109.521 49.8674 109.741 50.622C109.867 51.0308 109.898 59.7717 109.867 79.4703L109.82 107.737L104.836 100.096L99.8369 92.456V71.9084C99.8369 58.6241 99.8998 51.1566 99.9942 50.795C100.246 49.9146 100.796 49.2229 101.551 48.8141C102.195 48.484 102.431 48.4525 104.899 48.4525C107.226 48.4525 107.635 48.484 108.153 48.767Z" fill="black"/>
<path d="M123.309 148.612C122.758 148.957 122.585 149.193 123.073 148.926C123.419 148.722 123.985 148.297 123.89 148.281C123.843 148.281 123.576 148.439 123.309 148.612ZM122.224 149.319C121.941 149.539 121.941 149.555 122.287 149.382C122.475 149.288 122.633 149.178 122.633 149.146C122.633 149.02 122.554 149.052 122.224 149.319ZM121.438 149.791C121.155 150.011 121.155 150.027 121.501 149.854C121.689 149.759 121.847 149.649 121.847 149.618C121.847 149.492 121.768 149.523 121.438 149.791ZM120.652 150.262C120.369 150.482 120.369 150.498 120.715 150.325C120.903 150.231 121.06 150.121 121.06 150.089C121.06 149.964 120.982 149.995 120.652 150.262ZM119.457 150.891C118.86 151.206 118.891 151.331 119.488 151.033C119.756 150.891 119.96 150.75 119.96 150.718C119.96 150.608 119.944 150.624 119.457 150.891Z" fill="black"/>
</g>
<defs>
<clipPath id="clip0_55_75">
<rect width="161" height="161" fill="white"/>
</clipPath>
</defs>
</svg>
