<svg width="179" height="221" viewBox="0 0 179 221" fill="none" xmlns="http://www.w3.org/2000/svg">
<g clip-path="url(#clip0_55_114)">
<path d="M89.5071 211.952C86.7843 211.953 84.1091 211.235 81.7508 209.872L57.0691 195.23C53.3856 193.165 55.1805 192.435 56.3987 192.009C60.3163 190.796 64.0674 189.098 67.5646 186.953C67.8574 186.817 68.1798 186.759 68.5015 186.783C68.8231 186.807 69.1333 186.912 69.4028 187.09L88.3682 198.38C88.7213 198.567 89.1148 198.665 89.5143 198.665C89.9139 198.665 90.3073 198.567 90.6605 198.38L164.619 155.605C164.965 155.397 165.252 155.103 165.45 154.751C165.648 154.398 165.752 154.001 165.751 153.597V68.0319C165.751 67.6212 165.646 67.2174 165.445 66.8594C165.244 66.5013 164.955 66.2012 164.605 65.9878L90.6461 23.2487C90.2973 23.0519 89.9038 22.9485 89.5035 22.9485C89.1033 22.9485 88.7097 23.0519 88.361 23.2487L14.4456 66.0022C14.093 66.2111 13.8002 66.5078 13.5957 66.8634C13.3911 67.219 13.2816 67.6215 13.2778 68.0319V153.56C13.2788 153.964 13.3868 154.36 13.5908 154.707C13.7947 155.055 14.0872 155.342 14.4384 155.54L34.7229 167.27C45.7158 172.774 52.4485 166.288 52.4485 159.772V75.3272C52.4485 75.0426 52.5044 74.7609 52.6131 74.498C52.7218 74.2351 52.8811 73.9962 53.0819 73.795C53.2827 73.5937 53.5211 73.4341 53.7835 73.3252C54.0459 73.2163 54.3271 73.1603 54.611 73.1603H63.982C64.5556 73.1603 65.1056 73.3886 65.5112 73.795C65.9167 74.2013 66.1446 74.7525 66.1446 75.3272V159.78C66.1446 174.479 58.1576 182.893 44.2453 182.893C38.2434 182.998 32.3356 181.39 27.2117 178.256L7.77056 167.082C5.41043 165.705 3.4521 163.731 2.09108 161.359C0.73006 158.986 0.0139599 156.297 0.0142725 153.56V68.0319C0.0072573 65.2909 0.720327 62.5964 2.08183 60.2191C3.44332 57.8418 5.40529 55.8654 7.77056 54.4886L81.7364 11.699C84.119 10.3928 86.7913 9.70825 89.5071 9.70825C92.223 9.70825 94.8952 10.3928 97.2778 11.699L171.236 54.4886C173.596 55.8631 175.555 57.8337 176.917 60.2039C178.28 62.574 178.998 65.2607 179 67.9958V153.56C178.996 156.297 178.277 158.985 176.915 161.357C175.553 163.729 173.596 165.703 171.236 167.082L97.2778 209.872C94.9152 211.238 92.2348 211.955 89.5071 211.952Z" fill="#00D486"/>
<path d="M75.4795 124.935C75.4795 124.361 75.7073 123.809 76.1129 123.403C76.5184 122.997 77.0685 122.768 77.642 122.768H87.2076C87.7187 122.77 88.2127 122.953 88.602 123.285C88.9913 123.617 89.2506 124.076 89.3341 124.581C90.7758 134.34 95.1009 139.259 114.657 139.259C130.235 139.259 136.874 135.727 136.874 127.442C136.874 122.667 134.992 119.121 110.779 116.744C90.5379 114.736 78.0241 110.244 78.0241 94.0349C78.0241 79.0831 90.6028 70.1626 111.688 70.1626C135.382 70.1626 147.11 78.4041 148.595 96.0863C148.617 96.3815 148.58 96.6782 148.483 96.9581C148.387 97.2381 148.235 97.4953 148.035 97.7139C147.836 97.9325 147.594 98.1079 147.325 98.2293C147.055 98.3506 146.764 98.4153 146.468 98.4193H136.838C136.355 98.4125 135.888 98.2438 135.511 97.9401C135.135 97.6364 134.871 97.2151 134.762 96.7436C132.462 86.4796 126.832 83.2003 111.695 83.2003C94.6828 83.2003 92.7077 89.1377 92.7077 93.5871C92.7077 98.9755 95.0432 100.55 118.009 103.591C140.738 106.603 151.536 110.865 151.536 126.871C151.536 143.022 138.099 152.267 114.665 152.267C82.2626 152.311 75.4795 137.424 75.4795 124.935Z" fill="#00D486"/>
</g>
<defs>
<clipPath id="clip0_55_114">
<rect width="179" height="221" fill="white"/>
</clipPath>
</defs>
</svg>
