<svg width="261" height="269" viewBox="0 0 261 269" fill="none" xmlns="http://www.w3.org/2000/svg">
<g clip-path="url(#clip0_55_122)">
<path d="M259.989 161.064C258.424 156.327 254.324 153.028 249.023 152.237C246.523 151.864 243.66 152.023 240.272 152.721C234.367 153.938 229.986 154.402 226.789 154.491C238.857 134.13 248.67 110.911 254.319 89.0535C263.454 53.7111 258.572 37.6104 252.868 30.3277C237.772 11.0513 215.747 0.695868 189.176 0.379009C175.001 0.205807 162.558 3.00252 156.067 5.0137C150.023 3.948 143.524 3.353 136.706 3.24296C123.924 3.03919 112.631 5.82368 102.981 11.5465C97.6385 9.74111 89.0642 7.19605 79.1625 5.57202C55.8744 1.75138 37.1048 4.72843 23.3758 14.4206C6.75132 26.1556 -0.955318 46.5446 0.469987 75.0211C0.922658 84.0623 5.98361 111.571 13.9523 137.659C18.532 152.654 23.4156 165.107 28.4673 174.674C35.6316 188.239 43.2974 196.228 51.9033 199.097C56.7267 200.703 65.4906 201.828 74.7082 194.156C75.8766 195.57 77.4354 196.975 79.5041 198.28C82.1314 199.936 85.3439 201.289 88.5524 202.091C100.115 204.979 110.945 204.257 120.185 200.208C120.242 201.85 120.286 203.419 120.323 204.774C120.384 206.972 120.445 209.127 120.526 211.142C121.073 224.768 122.001 235.363 124.75 242.776C124.901 243.183 125.104 243.805 125.318 244.464C126.689 248.66 128.982 255.683 134.816 261.184C140.856 266.882 148.163 268.63 154.856 268.63C158.212 268.63 161.414 268.19 164.223 267.589C174.235 265.444 185.606 262.177 193.831 250.473C201.608 239.408 205.389 222.743 206.073 196.485C206.161 195.742 206.243 195.033 206.322 194.358L206.485 192.97L208.317 193.131L208.789 193.162C218.986 193.627 231.455 191.466 239.113 187.911C245.164 185.105 264.554 174.875 259.989 161.064Z" fill="black"/>
<path d="M242.553 163.75C212.232 170 210.147 159.742 210.147 159.742C242.16 112.271 255.543 52.0138 243.995 37.2661C212.488 -2.96272 157.948 16.0631 157.037 16.5562L156.745 16.6092C150.754 15.3662 144.051 14.6265 136.515 14.5032C122.796 14.2791 112.389 18.0977 104.492 24.0823C104.492 24.0823 7.19787 -15.9723 11.7236 74.4577C12.686 93.6954 39.3162 220.022 71.0786 181.866C82.688 167.913 93.9059 156.116 93.9059 156.116C99.4767 159.814 106.146 161.701 113.138 161.023L113.682 160.563C113.513 162.295 113.59 163.989 113.899 165.995C105.716 175.131 108.121 176.735 91.7639 180.1C75.2118 183.509 84.9351 189.577 91.2837 191.165C98.9801 193.087 116.785 195.811 128.816 178.981L128.337 180.902C131.542 183.468 133.793 197.593 133.416 210.399C133.039 223.204 132.787 231.995 135.312 238.862C137.84 245.729 140.357 261.18 161.861 256.576C179.828 252.728 189.139 242.756 190.435 226.123C191.354 214.298 193.435 216.047 193.565 205.474L195.234 200.47C197.158 184.44 195.54 179.269 206.609 181.674L209.301 181.91C217.447 182.28 228.111 180.6 234.37 177.693C247.846 171.444 255.839 161.008 242.551 163.75H242.553Z" fill="#336791"/>
<path d="M110.187 83.0608C107.454 82.6807 104.98 83.0322 103.728 83.9798C103.025 84.5126 102.806 85.13 102.747 85.5549C102.59 86.6807 103.379 87.9257 103.865 88.5676C105.237 90.3852 107.241 91.6343 109.225 91.9094C109.513 91.9501 109.799 91.9685 110.084 91.9685C113.392 91.9685 116.401 89.3939 116.666 87.4937C116.997 85.1137 113.54 83.5264 110.187 83.0608ZM200.705 83.1362C200.444 81.2707 197.122 80.7388 193.97 81.1769C190.822 81.615 187.769 83.0353 188.024 84.9049C188.228 86.3587 190.855 88.8406 193.965 88.8406C194.228 88.8406 194.493 88.8233 194.76 88.7856C196.836 88.4983 198.359 87.1809 199.083 86.4219C200.184 85.2645 200.822 83.9747 200.705 83.1362Z" fill="white"/>
<path d="M252.642 163.039C251.486 159.546 247.764 158.422 241.582 159.698C223.225 163.484 216.651 160.861 214.493 159.273C228.761 137.551 240.499 111.294 246.832 86.7957C249.831 75.1912 251.488 64.4139 251.623 55.6295C251.773 45.9882 250.13 38.9032 246.741 34.5752C233.077 17.1276 213.023 7.76859 188.748 7.51185C172.059 7.32438 157.959 11.5923 155.226 12.7925C149.469 11.362 143.194 10.4838 136.362 10.3717C123.834 10.169 113.005 13.1664 104.039 19.2764C100.144 17.8276 90.0797 14.3747 77.7709 12.3931C56.4912 8.9698 39.5813 11.5638 27.5141 20.1067C13.1152 30.3012 6.4679 48.5241 7.75557 74.2681C8.18887 82.9292 13.1275 109.574 20.9208 135.091C31.1793 168.676 42.3309 187.688 54.0637 191.599C55.437 192.057 57.0203 192.377 58.7668 192.377C63.0468 192.377 68.2943 190.449 73.7539 183.89C80.413 175.907 87.3015 168.118 94.4106 160.532C99.023 163.006 104.09 164.387 109.272 164.526C109.283 164.661 109.296 164.797 109.308 164.931C108.416 165.994 107.542 167.073 106.688 168.166C103.097 172.721 102.35 173.67 90.7913 176.048C87.5033 176.726 78.771 178.525 78.6426 184.642C78.5039 191.325 88.9653 194.132 90.1571 194.43C94.3107 195.469 98.3124 195.981 102.128 195.981C111.409 195.981 119.577 192.933 126.104 187.035C125.903 210.862 126.897 234.34 129.76 241.493C132.105 247.349 137.832 261.661 155.925 261.66C158.58 261.66 161.502 261.351 164.716 260.662C183.599 256.618 191.799 248.277 194.971 229.89C196.669 220.064 199.581 196.599 200.952 184.012C203.843 184.914 207.565 185.326 211.589 185.325C219.982 185.325 229.667 183.544 235.74 180.726C242.563 177.56 254.875 169.79 252.642 163.039ZM207.674 77.9869C207.612 81.7026 207.1 85.0759 206.558 88.597C205.974 92.3841 205.37 96.2995 205.218 101.052C205.069 105.678 205.647 110.487 206.205 115.138C207.335 124.531 208.494 134.202 204.007 143.745C203.262 142.425 202.598 141.061 202.019 139.66C201.461 138.309 200.25 136.139 198.573 133.136C192.049 121.443 176.771 94.0631 184.592 82.8905C186.922 79.565 192.834 76.1458 207.674 77.9869ZM189.686 15.036C211.437 15.5158 228.642 23.6472 240.823 39.2028C250.166 51.1344 239.878 105.425 210.095 152.262C209.795 151.882 209.494 151.502 209.192 151.124L208.814 150.653C216.511 137.952 215.006 125.384 213.666 114.242C213.116 109.67 212.596 105.351 212.728 101.294C212.865 96.9943 213.434 93.3061 213.984 89.7402C214.66 85.3459 215.348 80.7989 215.159 75.4388C215.301 74.8764 215.358 74.2121 215.283 73.4235C214.799 68.2835 208.926 52.9 196.957 38.9766C190.41 31.3608 180.862 22.8382 167.825 17.0899C173.432 15.9285 181.1 14.8454 189.686 15.036ZM67.9762 179.089C61.961 186.317 57.8074 184.931 56.4412 184.477C47.5407 181.51 37.2129 162.71 28.1075 132.899C20.2285 107.104 15.6243 81.1656 15.2593 73.8922C14.1093 50.8888 19.6892 34.8574 31.8451 26.2422C51.628 12.223 84.1531 20.6141 97.2225 24.8698C97.0349 25.0552 96.8392 25.2284 96.6536 25.4169C75.2067 47.0611 75.7155 84.0408 75.7685 86.3016C75.7665 87.1737 75.8399 88.4086 75.9398 90.107C76.3089 96.327 76.996 107.903 75.1609 121.012C73.4562 133.195 77.2142 145.118 85.4693 153.726C86.3166 154.608 87.207 155.447 88.1375 156.241C84.4631 160.173 76.4771 168.87 67.9762 179.089ZM90.8943 148.531C84.2408 141.593 81.2189 131.942 82.6024 122.052C84.5395 108.204 83.8248 96.1425 83.4405 89.6627C83.3864 88.756 83.3385 87.9613 83.311 87.3347C86.444 84.5584 100.963 76.7846 111.318 79.1555C116.042 80.2365 118.921 83.4519 120.118 88.9822C126.313 117.615 120.938 129.548 116.619 139.139C115.729 141.114 114.888 142.982 114.17 144.913L113.613 146.407C112.205 150.183 110.893 153.694 110.081 157.027C103.007 157.007 96.1265 153.987 90.8943 148.53V148.531ZM91.9801 187.145C89.9145 186.63 88.0569 185.734 86.967 184.991C87.8775 184.563 89.4975 183.981 92.3073 183.402C105.905 180.605 108.005 178.631 112.591 172.812C113.642 171.477 114.834 169.965 116.485 168.123L116.487 168.121C118.945 165.371 120.069 165.837 122.108 166.683C123.761 167.365 125.371 169.436 126.023 171.714C126.332 172.79 126.679 174.831 125.544 176.421C115.965 189.825 102.005 189.652 91.9801 187.145ZM163.142 253.321C146.508 256.882 140.618 248.401 136.736 238.704C134.231 232.445 133 204.217 133.874 173.043C133.885 172.629 133.826 172.228 133.712 171.851C133.609 171.107 133.454 170.371 133.247 169.649C131.948 165.113 128.782 161.319 124.984 159.746C123.475 159.121 120.706 157.975 117.379 158.826C118.088 155.903 119.319 152.603 120.653 149.03L121.213 147.528C121.843 145.833 122.634 144.078 123.47 142.219C127.99 132.186 134.179 118.443 127.462 87.3958C124.946 75.7668 116.543 70.0878 103.805 71.4072C96.1683 72.1968 89.1815 75.2757 85.6967 77.0414C84.9473 77.4204 84.2622 77.7872 83.6219 78.1438C84.5946 66.4271 88.269 44.5303 102.014 30.6761C110.669 21.9549 122.195 17.6472 136.238 17.8795C163.908 18.3319 181.652 32.5223 191.666 44.3479C200.295 54.5373 204.968 64.8021 206.832 70.3385C192.809 68.9131 183.271 71.6792 178.436 78.587C167.918 93.6128 184.191 122.776 192.011 136.792C193.446 139.361 194.684 141.581 195.073 142.524C197.62 148.692 200.917 152.81 203.324 155.816C204.062 156.737 204.778 157.63 205.322 158.411C201.075 159.634 193.446 162.462 194.141 176.594C193.58 183.685 189.593 216.885 187.567 228.615C184.893 244.111 179.187 249.883 163.142 253.322V253.321ZM232.576 173.917C228.233 175.931 220.965 177.442 214.061 177.767C206.435 178.123 202.552 176.913 201.639 176.168C201.211 167.361 204.49 166.441 207.962 165.467C208.507 165.314 209.04 165.165 209.553 164.985C209.873 165.245 210.222 165.503 210.606 165.756C216.735 169.798 227.667 170.234 243.102 167.051L243.271 167.017C241.189 168.962 237.627 171.572 232.576 173.917Z" fill="white"/>
</g>
<defs>
<clipPath id="clip0_55_122">
<rect width="261" height="269" fill="white"/>
</clipPath>
</defs>
</svg>
