<svg width="237" height="236" viewBox="0 0 237 236" fill="none" xmlns="http://www.w3.org/2000/svg">
<g clip-path="url(#clip0_55_105)">
<path d="M117.485 0.0666504C57.4708 0.0666504 61.2181 26.0868 61.2181 26.0868L61.2847 53.0445H118.556V61.1379H38.5376C38.5376 61.1379 0.134277 56.7835 0.134277 117.324C0.134277 177.867 33.6537 175.72 33.6537 175.72H53.6579V147.626C53.6579 147.626 52.5795 114.114 86.6422 114.114H143.445C143.445 114.114 175.358 114.629 175.358 83.2775V31.4389C175.358 31.4389 180.205 0.0666504 117.485 0.0666504ZM85.9063 18.1952C87.2597 18.1939 88.6 18.4595 89.8505 18.9768C91.1011 19.494 92.2374 20.2527 93.1943 21.2094C94.1513 22.1662 94.9102 23.3022 95.4275 24.5525C95.9448 25.8028 96.2105 27.1428 96.2093 28.4959C96.2105 29.8489 95.9448 31.1889 95.4275 32.4392C94.9102 33.6895 94.1513 34.8255 93.1943 35.7823C92.2374 36.739 91.1011 37.4977 89.8505 38.015C88.6 38.5322 87.2597 38.7978 85.9063 38.7966C84.553 38.7978 83.2127 38.5322 81.9621 38.015C80.7115 37.4977 79.5753 36.739 78.6183 35.7823C77.6613 34.8255 76.9025 33.6895 76.3851 32.4392C75.8678 31.1889 75.6021 29.8489 75.6033 28.4959C75.6021 27.1428 75.8678 25.8028 76.3851 24.5525C76.9025 23.3022 77.6613 22.1662 78.6183 21.2094C79.5753 20.2527 80.7115 19.494 81.9621 18.9768C83.2127 18.4595 84.553 18.1939 85.9063 18.1952Z" fill="url(#paint0_linear_55_105)"/>
<path d="M119.19 235.191C179.204 235.191 175.457 209.171 175.457 209.171L175.39 182.214H118.119V174.121H198.136C198.136 174.121 236.54 178.475 236.54 117.932C236.54 57.3906 203.02 59.5377 203.02 59.5377H183.016V87.631C183.016 87.631 184.095 121.143 150.032 121.143H93.2294C93.2294 121.143 61.3161 120.627 61.3161 151.98V203.82C61.3161 203.82 56.4701 235.191 119.189 235.191H119.19ZM150.769 217.064C149.415 217.066 148.075 216.8 146.824 216.283C145.574 215.766 144.438 215.007 143.481 214.05C142.524 213.093 141.765 211.957 141.247 210.707C140.73 209.457 140.464 208.117 140.466 206.764C140.464 205.411 140.73 204.071 141.247 202.82C141.764 201.57 142.523 200.434 143.48 199.477C144.437 198.52 145.574 197.761 146.824 197.244C148.075 196.727 149.415 196.461 150.769 196.462C152.122 196.461 153.462 196.727 154.713 197.244C155.963 197.761 157.1 198.52 158.057 199.476C159.014 200.433 159.773 201.569 160.29 202.82C160.807 204.07 161.073 205.41 161.072 206.763C161.073 208.116 160.807 209.456 160.29 210.706C159.773 211.956 159.014 213.093 158.057 214.049C157.1 215.006 155.963 215.765 154.713 216.282C153.462 216.799 152.122 217.066 150.769 217.064Z" fill="url(#paint1_linear_55_105)"/>
</g>
<defs>
<linearGradient id="paint0_linear_55_105" x1="2271.98" y1="2114.87" x2="13985" y2="13713.6" gradientUnits="userSpaceOnUse">
<stop stop-color="#387EB8"/>
<stop offset="1" stop-color="#366994"/>
</linearGradient>
<linearGradient id="paint1_linear_55_105" x1="3414.57" y1="3674.49" x2="15993.1" y2="15568" gradientUnits="userSpaceOnUse">
<stop stop-color="#FFE052"/>
<stop offset="1" stop-color="#FFC331"/>
</linearGradient>
<clipPath id="clip0_55_105">
<rect width="237" height="236" fill="white"/>
</clipPath>
</defs>
</svg>
