<svg width="218" height="248" viewBox="0 0 218 248" fill="none" xmlns="http://www.w3.org/2000/svg">
<path d="M218 124.022C218 109.604 199.915 95.9405 172.187 87.4671C178.586 59.2523 175.742 36.8046 163.211 29.6178C160.323 27.932 156.946 27.1335 153.258 27.1335V37.0264C155.302 37.0264 156.946 37.4257 158.323 38.1799C164.366 41.6402 166.988 54.816 164.944 71.7626C164.455 75.9328 163.656 80.3247 162.678 84.8054C153.969 82.6759 144.459 81.0345 134.461 79.9698C128.463 71.7626 122.242 64.3097 115.976 57.7883C130.462 44.3463 144.06 36.9821 153.302 36.9821V27.0891C141.082 27.0891 125.086 35.7843 108.911 50.8677C92.7366 35.873 76.7399 27.2666 64.5202 27.2666V37.1595C73.7183 37.1595 87.36 44.4794 101.846 57.8327C95.625 64.354 89.404 71.7626 83.4941 79.9698C73.4517 81.0345 63.9425 82.6759 55.2332 84.8497C54.2112 80.4134 53.4558 76.1102 52.9225 71.9844C50.8341 55.0378 53.4113 41.862 59.4101 38.3573C60.7432 37.5588 62.4762 37.2039 64.5202 37.2039V27.3109C60.7876 27.3109 57.4105 28.1095 54.4778 29.7953C41.9914 36.9821 39.192 59.3854 45.6351 87.5115C17.9963 96.0292 0 109.649 0 124.022C0 138.44 18.0852 152.104 45.8129 160.577C39.4142 188.792 42.2581 211.24 54.7888 218.427C57.6771 220.112 61.0542 220.911 64.7868 220.911C77.0065 220.911 93.0033 212.216 109.178 197.132C125.352 212.127 141.349 220.734 153.569 220.734C157.301 220.734 160.678 219.935 163.611 218.249C176.097 211.062 178.897 188.659 172.454 160.533C200.004 152.06 218 138.396 218 124.022ZM160.145 94.4321C158.501 100.155 156.457 106.055 154.146 111.955C152.324 108.406 150.414 104.857 148.325 101.308C146.281 97.7593 144.104 94.299 141.927 90.9274C148.236 91.8591 154.324 93.0125 160.145 94.4321ZM139.794 141.679C136.328 147.668 132.773 153.346 129.085 158.625C122.464 159.202 115.754 159.513 109 159.513C102.29 159.513 95.5805 159.202 89.0041 158.67C85.3159 153.391 81.7167 147.756 78.2507 141.812C74.8736 136 71.8076 130.1 69.0082 124.155C71.7632 118.211 74.8736 112.266 78.2063 106.454C81.6722 100.465 85.2271 94.787 88.9152 89.5078C95.5361 88.9311 102.246 88.6206 109 88.6206C115.71 88.6206 122.419 88.9311 128.996 89.4635C132.684 94.7427 136.283 100.377 139.749 106.321C143.126 112.133 146.192 118.033 148.992 123.978C146.192 129.923 143.126 135.867 139.794 141.679ZM154.146 135.912C156.546 141.856 158.59 147.801 160.278 153.568C154.457 154.988 148.325 156.185 141.971 157.117C144.148 153.701 146.326 150.196 148.37 146.603C150.414 143.054 152.324 139.461 154.146 135.912ZM109.089 183.247C104.956 178.988 100.824 174.241 96.7358 169.051C100.735 169.228 104.823 169.361 108.956 169.361C113.132 169.361 117.265 169.272 121.309 169.051C117.309 174.241 113.177 178.988 109.089 183.247ZM76.0289 157.117C69.7191 156.185 63.6315 155.032 57.8104 153.612C59.4545 147.89 61.4986 141.989 63.8092 136.089C65.6311 139.638 67.5418 143.187 69.6303 146.736C71.7187 150.285 73.8516 153.745 76.0289 157.117ZM108.867 64.7976C112.999 69.0565 117.132 73.8033 121.22 78.9938C117.221 78.8163 113.132 78.6833 109 78.6833C104.823 78.6833 100.691 78.772 96.647 78.9938C100.646 73.8033 104.779 69.0565 108.867 64.7976ZM75.9845 90.9274C73.8072 94.3434 71.6298 97.8481 69.5858 101.441C67.5418 104.991 65.6311 108.54 63.8092 112.089C61.4097 106.144 59.3657 100.199 57.6771 94.4321C63.4982 93.0569 69.6303 91.8591 75.9845 90.9274ZM35.7705 146.47C20.0404 139.771 9.86465 130.987 9.86465 124.022C9.86465 117.057 20.0404 108.229 35.7705 101.575C39.5919 99.9331 43.7689 98.4692 48.0791 97.0939C50.6119 105.789 53.9446 114.839 58.0771 124.111C53.989 133.338 50.7008 142.344 48.2124 150.995C43.8133 149.62 39.6364 148.111 35.7705 146.47ZM59.6767 209.865C53.6335 206.404 51.0118 193.228 53.0559 176.282C53.5446 172.112 54.3445 167.72 55.3221 163.239C64.0314 165.369 73.5406 167.01 83.5385 168.075C89.5373 176.282 95.7583 183.735 102.024 190.256C87.5377 203.698 73.9405 211.062 64.6979 211.062C62.6983 211.018 61.0098 210.619 59.6767 209.865ZM165.077 176.06C167.166 193.007 164.589 206.182 158.59 209.687C157.257 210.486 155.524 210.841 153.48 210.841C144.282 210.841 130.64 203.521 116.154 190.167C122.375 183.646 128.596 176.237 134.506 168.03C144.548 166.966 154.057 165.324 162.767 163.15C163.789 167.631 164.589 171.934 165.077 176.06ZM182.185 146.47C178.364 148.111 174.187 149.575 169.876 150.951C167.344 142.255 164.011 133.205 159.879 123.933C163.967 114.706 167.255 105.7 169.743 97.0495C174.142 98.4248 178.319 99.9331 182.23 101.575C197.96 108.273 208.135 117.057 208.135 124.022C208.091 130.987 197.915 139.815 182.185 146.47Z" fill="#61DAFB"/>
<path d="M108.956 144.296C120.171 144.296 129.262 135.219 129.262 124.022C129.262 112.825 120.171 103.748 108.956 103.748C97.7403 103.748 88.6486 112.825 88.6486 124.022C88.6486 135.219 97.7403 144.296 108.956 144.296Z" fill="#61DAFB"/>
</svg>
