<svg width="142" height="136" viewBox="0 0 142 136" fill="none" xmlns="http://www.w3.org/2000/svg">
<g clip-path="url(#clip0_55_83)">
<path d="M98.391 94.6032C103.631 94.0581 107.607 89.5192 107.426 84.0718C107.245 78.625 102.728 74.2672 97.3066 74.2672H96.9455C91.3432 74.4489 87.0066 79.1695 87.1874 84.798C87.3683 87.5217 88.4521 89.882 90.0785 91.5161C83.9348 103.682 74.5383 112.578 60.4437 120.023C50.8665 125.107 40.9282 126.922 30.9898 125.652C22.8581 124.562 16.5336 120.931 12.5576 114.939C6.7755 106.042 6.23357 96.4184 11.1126 86.7955C14.5461 79.8957 19.9665 74.8117 23.4 72.2698C22.6773 69.9094 21.5929 65.915 21.0509 63.0102C-5.15083 82.0749 -2.44008 107.858 5.51081 120.023C11.4737 129.102 23.5809 134.73 36.9527 134.73C40.5665 134.73 44.1803 134.367 47.7946 133.459C70.9246 128.92 88.4527 115.12 98.391 94.6032ZM130.195 72.0886C116.461 55.9287 96.2227 47.032 73.0928 47.032H70.2018C68.5755 43.7638 65.1419 41.5847 61.3473 41.5847H60.9857C55.3844 41.7663 51.0479 46.487 51.2282 52.116C51.409 57.5628 55.9264 61.9206 61.3473 61.9206H61.7084C65.6839 61.7389 69.1174 59.1969 70.5629 55.7471H73.8156C87.5491 55.7471 100.559 59.7415 112.305 67.5491C121.34 73.541 127.845 81.3487 131.459 90.7899C134.531 98.4159 134.35 105.86 131.098 112.215C126.038 121.838 117.545 127.104 106.342 127.104C99.1138 127.104 92.2473 124.925 88.633 123.291C86.6455 125.107 83.0312 128.011 80.5012 129.828C88.2718 133.459 96.2227 135.456 103.812 135.456C121.159 135.456 133.989 125.833 138.868 116.21C144.108 105.679 143.747 87.5217 130.195 72.0886ZM38.3982 97.6892C38.5791 103.137 43.0964 107.494 48.5174 107.494H48.8791C54.4808 107.313 58.8174 102.591 58.6366 96.963C58.4563 91.5156 53.9384 87.1584 48.5174 87.1584H48.1563C47.7946 87.1584 47.2522 87.1584 46.8916 87.3395C39.4826 74.9929 36.4108 61.5573 37.4952 47.0315C38.2174 36.1373 41.8317 26.6955 48.1563 18.8878C53.3964 12.1697 63.5156 8.90152 70.3826 8.72039C89.5365 8.35701 97.6677 32.324 98.2102 41.9475C100.559 42.492 104.535 43.7633 107.245 44.6712C105.077 15.2574 87.0066 0.00537109 69.6599 0.00537109C53.3964 0.00537109 38.3982 11.8075 32.4348 29.2381C24.1228 52.4789 29.5438 74.8118 39.6629 92.424C38.7599 93.6948 38.2174 95.6917 38.3982 97.6892Z" fill="#764ABC"/>
</g>
<defs>
<clipPath id="clip0_55_83">
<rect width="142" height="136" fill="white"/>
</clipPath>
</defs>
</svg>
