<svg width="432" height="259" viewBox="0 0 432 259" fill="none" xmlns="http://www.w3.org/2000/svg">
<g clip-path="url(#clip0_55_93)">
<path d="M216 0C158.421 0 122.436 28.7784 108.04 86.3297C129.634 57.5514 154.825 46.7635 183.611 53.9554C200.038 58.0589 211.777 69.9752 224.775 83.1603C245.942 104.639 270.442 129.497 323.96 129.497C381.534 129.497 417.524 100.719 431.914 43.1622C410.326 71.9405 385.135 82.7338 356.343 75.5419C339.922 71.4384 328.183 59.5221 315.185 46.337C294.018 24.8585 269.513 0 216 0ZM108.04 129.497C50.4665 129.497 14.4762 158.276 0.0855103 215.832C21.6743 187.054 46.8647 176.261 75.6569 183.458C92.078 187.567 103.817 199.478 116.815 212.658C137.982 234.136 162.487 259 216 259C273.579 259 309.564 230.222 323.96 172.665C302.366 201.443 277.175 212.236 248.389 205.039C231.962 200.941 220.223 189.019 207.225 175.84C186.058 154.361 161.558 129.497 108.04 129.497Z" fill="#06B6D4"/>
</g>
<defs>
<clipPath id="clip0_55_93">
<rect width="432" height="259" fill="white"/>
</clipPath>
</defs>
</svg>
