<svg width="237" height="237" viewBox="0 0 237 237" fill="none" xmlns="http://www.w3.org/2000/svg">
<g clip-path="url(#clip0_55_102)">
<path d="M0 118.5V0H237V237H0" fill="#007ACC"/>
<path d="M51.9623 118.915V128.572H82.7723V216.262H104.636V128.572H135.446V119.092C135.446 113.76 135.446 109.435 135.209 109.316C135.209 109.138 116.426 109.079 93.615 109.079L52.14 109.257V118.974L51.9623 118.915ZM190.43 109.02C196.473 110.442 201.095 113.167 205.242 117.493C207.434 119.863 210.693 124.01 210.93 125.077C210.93 125.432 200.68 132.364 194.459 136.216C194.222 136.393 193.274 135.386 192.326 133.846C189.245 129.461 186.104 127.565 181.187 127.21C174.077 126.736 169.337 130.468 169.337 136.69C169.337 138.586 169.692 139.652 170.403 141.193C172.003 144.451 174.965 146.407 184.149 150.436C201.095 157.723 208.442 162.523 212.885 169.396C217.922 177.098 219.047 189.185 215.67 198.25C211.878 208.145 202.635 214.84 189.422 217.033C185.275 217.744 175.795 217.625 171.351 216.855C161.871 215.077 152.806 210.337 147.236 204.235C145.044 201.865 140.837 195.525 141.074 195.11L143.326 193.688L152.213 188.533L158.909 184.623L160.449 186.697C162.404 189.778 166.789 193.925 169.337 195.347C177.039 199.317 187.349 198.784 192.444 194.162C194.636 192.148 195.584 190.015 195.584 187.052C195.584 184.327 195.17 183.082 193.807 181.009C191.911 178.402 188.119 176.269 177.454 171.529C165.189 166.315 159.975 162.997 155.117 157.901C152.332 154.82 149.784 150.021 148.599 146.051C147.71 142.615 147.414 134.201 148.244 130.824C150.791 118.974 159.738 110.679 172.536 108.309C176.684 107.479 186.46 107.835 190.548 108.901L190.43 109.02Z" fill="white"/>
</g>
<defs>
<clipPath id="clip0_55_102">
<rect width="237" height="237" fill="white"/>
</clipPath>
</defs>
</svg>
